#!OML:ASF H:\Pregnant\Project 1\Capture day 1\Session 1\femalepreg.ASF
:FULLY-SPECIFIED
:DEGREES
1361
root 5.90685 16.3533 -25.109 -137.863 -102.85 158.479
lowerback -11.4731 -1.82613 -8.09337
upperback -7.62328 -2.01806 0.569792
thorax -1.34112 -0.85517 4.94383
lowerneck -14.3145 10.2237 9.75174
upperneck 17.2468 12.8493 -5.2337
head 8.71538 6.17772 -1.73316
rclavicle 7.12829e-015 1.11319e-014
rhumerus -51.2029 -13.2106 -63.7652
rradius 26.8985
rwrist -10.2155
rhand -9.68322 -19.5179
rfingers 7.12502
rthumb 16.2887 -48.8537
lclavicle 7.12829e-015 1.11319e-014
lhumerus -29.8833 -4.45853 80.5343
lradius 32.3478
lwrist 38.3586
lhand -22.4134 -5.53241
lfingers 7.12502
lthumb 4.00953 24.4096
rfemur -30.4609 14.0808 11.966
rtibia 33.5268
rfoot -11.9585 -16.6022
rtoes -16.3544
lfemur -35.2695 -9.79215 -7.02467
ltibia 26.3979
lfoot -11.5936 1.14767
ltoes -23.8142
1362
root 5.91674 16.3613 -25.0506 -137.436 -102.674 158.151
lowerback -11.4232 -1.77571 -8.46101
upperback -7.62733 -1.92474 0.426248
thorax -1.38724 -0.796958 5.01133
lowerneck -14.4794 10.1131 9.4467
upperneck 17.1427 12.6837 -4.93724
head 8.65375 6.10813 -1.60859
rclavicle 7.57867e-015 -1.11319e-014
rhumerus -51.1293 -12.4374 -64.3084
rradius 26.6846
rwrist -9.69476
rhand -8.53238 -19.2773
rfingers 7.12502
rthumb 17.3965 -48.5188
lclavicle 7.57867e-015 -1.11319e-014
lhumerus -29.5362 -4.2669 80.5203
lradius 32.3875
lwrist 38.1835
lhand -22.6096 -5.69677
lfingers 7.12502
lthumb 3.82015 24.2487
rfemur -31.1628 14.1306 11.6869
rtibia 34.4052
rfoot -11.5214 -16.6447
rtoes -15.5071
lfemur -35.2474 -9.74551 -7.28347
ltibia 26.2726
lfoot -11.5054 1.22146
ltoes -23.9375
1363
root 5.92848 16.3698 -24.9958 -137.014 -102.489 157.857
lowerback -11.373 -1.73969 -8.84825
upperback -7.6516 -1.85208 0.280017
thorax -1.45307 -0.747594 5.08469
lowerneck -14.6395 10.0322 9.18195
upperneck 17.0672 12.5503 -4.62876
head 8.60643 6.05732 -1.48113
rclavicle -8.75895e-016 1.11319e-014
rhumerus -51.0613 -11.6776 -64.8672
rradius 26.5509
rwrist -9.1173
rhand -7.38867 -19.0616
rfingers 7.12502
rthumb 18.497 -48.2021
lclavicle -8.75895e-016 1.11319e-014
lhumerus -29.2383 -4.08845 80.4786
lradius 32.4364
lwrist 38.044
lhand -22.8345 -5.88661
lfingers 7.12502
lthumb 3.60297 24.0627
rfemur -31.9368 14.1995 11.4041
rtibia 35.3313
rfoot -11.1099 -16.7523
rtoes -14.1827
lfemur -35.248 -9.6412 -7.55169
ltibia 26.1176
lfoot -11.4088 1.24034
ltoes -24.0117
1364
root 5.94118 16.3793 -24.9451 -136.563 -102.295 157.553
lowerback -11.3212 -1.70728 -9.26327
upperback -7.69319 -1.78497 0.137399
thorax -1.53845 -0.698827 5.17676
lowerneck -14.7677 9.95445 8.9602
upperneck 16.9917 12.421 -4.34785
head 8.55951 6.00912 -1.37005
rclavicle 6.31141e-015 2.06736e-014
rhumerus -51.022 -10.9535 -65.4112
rradius 26.514
rwrist -8.50356
rhand -6.27246 -18.8857
rfingers 7.12502
rthumb 19.5704 -47.9207
lclavicle 6.31141e-015 2.06736e-014
lhumerus -28.9846 -3.92219 80.4288
lradius 32.4872
lwrist 37.9246
lhand -23.1011 -6.08476
lfingers 7.12502
lthumb 3.34549 23.8687
rfemur -32.7542 14.2873 11.1376
rtibia 36.2822
rfoot -10.7093 -16.9407
rtoes -12.4691
lfemur -35.2588 -9.49014 -7.8163
ltibia 25.9435
lfoot -11.3147 1.21237
ltoes -24.0051
1365
root 5.9542 16.3889 -24.8966 -136.111 -102.094 157.239
lowerback -11.2515 -1.67545 -9.69201
upperback -7.74277 -1.72125 0.0086614
thorax -1.64252 -0.64958 5.29085
lowerneck -14.8577 9.87424 8.75131
upperneck 16.9074 12.2979 -4.10909
head 8.50787 5.96129 -1.27583
rclavicle 2.24627e-014 -4.13472e-014
rhumerus -51.0068 -10.2749 -65.8984
rradius 26.5711
rwrist -7.84841
rhand -5.18127 -18.7396
rfingers 7.12502
rthumb 20.6192 -47.6644
lclavicle 2.24627e-014 -4.13472e-014
lhumerus -28.7801 -3.80018 80.4076
lradius 32.5462
lwrist 37.8931
lhand -23.3977 -6.26381
lfingers 7.12502
lthumb 3.05902 23.694
rfemur -33.5681 14.3776 10.8946
rtibia 37.2343
rfoot -10.3074 -17.1981
rtoes -10.4871
lfemur -35.2582 -9.32258 -8.08274
ltibia 25.7618
lfoot -11.2241 1.16256
ltoes -23.85
1366
root 5.96556 16.3977 -24.8478 -135.657 -101.882 156.864
lowerback -11.1609 -1.63325 -10.0962
upperback -7.7719 -1.64683 -0.114819
thorax -1.73874 -0.59579 5.39739
lowerneck -14.9504 9.78372 8.51016
upperneck 16.8312 12.1682 -3.86655
head 8.4572 5.90862 -1.17629
rclavicle 1.717e-014 -3.18055e-014
rhumerus -50.9994 -9.65216 -66.3337
rradius 26.7139
rwrist -7.18452
rhand -4.14299 -18.6121
rfingers 7.12502
rthumb 21.6166 -47.4255
lclavicle 1.717e-014 -3.18055e-014
lhumerus -28.6028 -3.70762 80.4009
lradius 32.6014
lwrist 37.9306
lhand -23.7287 -6.44519
lfingers 7.12502
lthumb 2.7394 23.517
rfemur -34.3087 14.4792 10.6859
rtibia 38.1701
rfoot -9.9061 -17.5194
rtoes -8.35752
lfemur -35.1891 -9.20288 -8.3451
ltibia 25.5833
lfoot -11.1371 1.16375
ltoes -23.583
1367
root 5.97513 16.4054 -24.7979 -135.222 -101.66 156.447
lowerback -11.0541 -1.57997 -10.4702
upperback -7.77725 -1.56025 -0.232648
thorax -1.82113 -0.537402 5.49364
lowerneck -15.0417 9.68702 8.25623
upperneck 16.7588 12.0396 -3.65032
head 8.40924 5.853 -1.08333
rclavicle -1.38652e-014 3.97569e-014
rhumerus -50.9947 -9.07788 -66.7173
rradius 26.9401
rwrist -6.55909
rhand -3.18782 -18.5048
rfingers 7.12502
rthumb 22.5337 -47.2099
lclavicle -1.38652e-014 3.97569e-014
lhumerus -28.4503 -3.65605 80.4156
lradius 32.6556
lwrist 38.0377
lhand -24.0749 -6.62729
lfingers 7.12502
lthumb 2.405 23.3389
rfemur -34.9652 14.5767 10.5156
rtibia 39.0792
rfoot -9.48393 -17.9037
rtoes -6.30311
lfemur -35.0544 -9.16375 -8.59534
ltibia 25.4112
lfoot -11.0486 1.23792
ltoes -23.1292
1368
root 5.98316 16.4115 -24.7461 -134.831 -101.432 156.022
lowerback -10.9327 -1.52528 -10.7744
upperback -7.76045 -1.47791 -0.363065
thorax -1.88772 -0.485044 5.53625
lowerneck -15.1256 9.61408 8.00555
upperneck 16.6869 11.9448 -3.43659
head 8.36322 5.81346 -0.987299
rclavicle -2.14439e-014 -3.33958e-014
rhumerus -50.9724 -8.54469 -67.0879
rradius 27.229
rwrist -5.98629
rhand -2.32966 -18.4046
rfingers 7.12502
rthumb 23.3572 -47.0074
lclavicle -2.14439e-014 -3.33958e-014
lhumerus -28.3343 -3.74385 80.4064
lradius 32.7314
lwrist 38.3231
lhand -24.4634 -6.83462
lfingers 7.12502
lthumb 2.02981 23.1355
rfemur -35.5454 14.6624 10.3768
rtibia 39.9643
rfoot -9.0195 -18.3416
rtoes -4.52453
lfemur -34.8616 -9.16564 -8.86045
ltibia 25.2448
lfoot -10.9637 1.35056
ltoes -22.751
1369
root 5.98981 16.4167 -24.693 -134.493 -101.203 155.609
lowerback -10.8044 -1.46018 -11.0062
upperback -7.72668 -1.38797 -0.528245
thorax -1.94173 -0.433517 5.50143
lowerneck -15.2064 9.56099 7.8293
upperneck 16.6301 11.8657 -3.24519
head 8.32953 5.7836 -0.907206
rclavicle -4.00054e-015 9.54166e-015
rhumerus -50.9551 -8.08602 -67.4695
rradius 27.5785
rwrist -5.50986
rhand -1.60313 -18.3215
rfingers 7.12502
rthumb 24.054 -46.834
lclavicle -4.00054e-015 9.54166e-015
lhumerus -28.2429 -3.98143 80.3443
lradius 32.8306
lwrist 38.7396
lhand -24.825 -6.96931
lfingers 7.12502
lthumb 1.68059 23.0038
rfemur -36.0638 14.7347 10.2698
rtibia 40.8319
rfoot -8.56759 -18.8269
rtoes -2.81806
lfemur -34.6222 -9.28358 -9.10312
ltibia 25.0746
lfoot -10.8618 1.56504
ltoes -22.2874
1370
root 5.99713 16.4216 -24.6412 -134.228 -100.985 155.289
lowerback -10.7108 -1.39044 -11.1121
upperback -7.68362 -1.2997 -0.79474
thorax -1.96739 -0.392775 5.28727
lowerneck -15.2933 9.51839 7.78498
upperneck 16.5614 11.7668 -3.04179
head 8.29998 5.75381 -0.845296
rclavicle -2.6339e-015 3.02153e-014
rhumerus -50.9372 -7.79774 -67.9451
rradius 27.9665
rwrist -5.10891
rhand -1.0352 -18.2588
rfingers 7.12502
rthumb 24.5985 -46.6983
lclavicle -2.6339e-015 3.02153e-014
lhumerus -28.1461 -4.43634 80.1293
lradius 32.9534
lwrist 39.2807
lhand -25.1295 -7.0084
lfingers 7.12502
lthumb 1.38653 22.9668
rfemur -36.5951 14.7856 10.1831
rtibia 41.6909
rfoot -8.16113 -19.3683
rtoes -1.09807
lfemur -34.409 -9.39873 -9.35022
ltibia 24.894
lfoot -10.7547 1.75712
ltoes -21.8006
1371
root 6.00551 16.4264 -24.592 -134.058 -100.782 155.099
lowerback -10.6448 -1.34072 -11.1477
upperback -7.64199 -1.24272 -1.11969
thorax -1.97419 -0.373754 4.96865
lowerneck -15.3788 9.5069 7.85584
upperneck 16.487 11.6868 -2.85565
head 8.27817 5.73831 -0.803574
rclavicle 1.12065e-014 -1.59028e-015
rhumerus -50.8893 -7.6079 -68.4981
rradius 28.3839
rwrist -4.79631
rhand -0.634579 -18.2186
rfingers 7.12502
rthumb 24.9824 -46.6053
lclavicle 1.12065e-014 -1.59028e-015
lhumerus -28.0665 -4.98837 79.7899
lradius 33.0954
lwrist 39.8929
lhand -25.3899 -6.97183
lfingers 7.12502
lthumb 1.13495 23.0049
rfemur -37.1568 14.8079 10.1158
rtibia 42.548
rfoot -7.86219 -19.9447
rtoes 0.657406
lfemur -34.2323 -9.50094 -9.60443
ltibia 24.6927
lfoot -10.6421 1.92072
ltoes -21.316
1372
root 6.01367 16.4315 -24.5453 -133.931 -100.582 154.968
lowerback -10.6089 -1.29106 -11.1176
upperback -7.59761 -1.1891 -1.49969
thorax -1.96104 -0.362205 4.55505
lowerneck -15.4496 9.51711 8.02562
upperneck 16.4072 11.6146 -2.67331
head 8.2592 5.73228 -0.777356
rclavicle -1.05356e-014 1.59028e-014
rhumerus -50.8357 -7.51612 -69.1155
rradius 28.8355
rwrist -4.58965
rhand -0.430945 -18.2029
rfingers 7.12502
rthumb 25.1775 -46.5623
lclavicle -1.05356e-014 1.59028e-014
lhumerus -27.9906 -5.58047 79.3559
lradius 33.2221
lwrist 40.4753
lhand -25.5666 -6.87498
lfingers 7.12502
lthumb 0.964368 23.1026
rfemur -37.7256 14.8134 10.0826
rtibia 43.3998
rfoot -7.71955 -20.5089
rtoes 2.34339
lfemur -34.0625 -9.56636 -9.86784
ltibia 24.4726
lfoot -10.5334 2.0356
ltoes -20.8179
1373
root 6.02329 16.4365 -24.5015 -133.937 -100.399 155.003
lowerback -10.5792 -1.26321 -11.0904
upperback -7.56638 -1.1663 -1.88171
thorax -1.95373 -0.366028 4.13892
lowerneck -15.5051 9.54997 8.24899
upperneck 16.3286 11.5694 -2.52776
head 8.24528 5.73848 -0.767991
rclavicle 2.9271e-014 -1.59028e-015
rhumerus -50.7594 -7.44737 -69.7458
rradius 29.3169
rwrist -4.48549
rhand -0.417592 -18.209
rfingers 7.12502
rthumb 25.1903 -46.5666
lclavicle 2.9271e-014 -1.59028e-015
lhumerus -27.9399 -6.11633 78.8999
lradius 33.3257
lwrist 40.9923
lhand -25.6737 -6.72291
lfingers 7.12502
lthumb 0.860885 23.2551
rfemur -38.3265 14.7795 10.0714
rtibia 44.2463
rfoot -7.77616 -21.0161
rtoes 3.94669
lfemur -33.9362 -9.60096 -10.1437
ltibia 24.235
lfoot -10.4131 2.08384
ltoes -20.4645
1374
root 6.03283 16.4405 -24.4585 -134.043 -100.226 155.129
lowerback -10.5348 -1.24799 -11.0823
upperback -7.53609 -1.16048 -2.22544
thorax -1.95256 -0.376219 3.7732
lowerneck -15.5782 9.57831 8.39257
upperneck 16.2733 11.5312 -2.35891
head 8.23606 5.74498 -0.737006
rclavicle -2.29099e-014 1.43125e-014
rhumerus -50.6612 -7.33299 -70.3476
rradius 29.837
rwrist -4.50802
rhand -0.592938 -18.2283
rfingers 7.12502
rthumb 25.0223 -46.6094
lclavicle -2.29099e-014 1.43125e-014
lhumerus -27.9093 -6.52144 78.485
lradius 33.3769
lwrist 41.3932
lhand -25.6941 -6.56143
lfingers 7.12502
lthumb 0.841192 23.4167
rfemur -38.9049 14.7227 10.0925
rtibia 45.0748
rfoot -8.0523 -21.4065
rtoes 5.39025
lfemur -33.8053 -9.6326 -10.4304
ltibia 23.9918
lfoot -10.294 2.10821
ltoes -20.0679
1375
root 6.0432 16.4434 -24.4174 -134.28 -100.069 155.398
lowerback -10.4756 -1.24557 -11.1433
upperback -7.51733 -1.16858 -2.50439
thorax -1.96975 -0.387747 3.51325
lowerneck -15.6576 9.58973 8.44495
upperneck 16.2331 11.4948 -2.2052
head 8.22818 5.74509 -0.696757
rclavicle -1.54555e-014 1.11319e-014
rhumerus -50.5552 -7.15592 -70.877
rradius 30.4032
rwrist -4.66188
rhand -0.951163 -18.2659
rfingers 7.12502
rthumb 24.679 -46.6944
lclavicle -1.54555e-014 1.11319e-014
lhumerus -27.89 -6.78789 78.1654
lradius 33.3545
lwrist 41.6495
lhand -25.6155 -6.41293
lfingers 7.12502
lthumb 0.917098 23.5648
rfemur -39.4843 14.6396 10.1409
rtibia 45.8776
rfoot -8.45705 -21.6562
rtoes 6.43363
lfemur -33.7027 -9.65935 -10.7253
ltibia 23.7548
lfoot -10.1744 2.10732
ltoes -19.6871
